<svg width="300" height="300" viewBox="0 0 300 300" fill="none" xmlns="http://www.w3.org/2000/svg">
<g clip-path="url(#clip0_9_2)">
<path d="M250.184 4H49.8162C22.313 4 0.0172119 26.2958 0.0172119 53.799V246.667C0.0172119 274.171 22.313 296.466 49.8162 296.466H250.184C277.687 296.466 299.983 274.171 299.983 246.667V53.799C299.983 26.2958 277.687 4 250.184 4Z" fill="#00005B"/>
<path d="M120.523 178.979H74.0384L64.5801 208.415C64.4589 208.919 64.1752 209.37 63.7727 209.698C63.3702 210.025 62.8713 210.211 62.3526 210.227L38.6226 210.226C37.279 210.226 36.8095 209.488 37.2141 208.012L77.4599 92.5847L77.8618 91.372L77.9954 90.9572L78.2649 90.0901C78.3985 89.6425 78.532 89.168 78.6668 88.6536C79.1941 85.9691 79.4636 83.2401 79.4718 80.5041C79.4446 80.3128 79.4623 80.1178 79.5234 79.9345C79.5846 79.7513 79.6876 79.5847 79.8242 79.4481C79.9608 79.3115 80.1274 79.2085 80.3106 79.1473C80.4939 79.0862 80.6889 79.0685 80.8802 79.0957H112.876C113.813 79.0957 114.35 79.4312 114.486 80.1022L160.164 208.214C160.566 209.556 160.164 210.227 158.957 210.226H132.797C132.347 210.275 131.896 210.16 131.526 209.901C131.156 209.641 130.892 209.257 130.785 208.818L120.523 178.979ZM81.2833 154.161H113.077L112.624 152.665L111.896 150.295L110.831 146.902L108.786 140.496L106.839 134.34L103.216 122.87C102.215 119.703 101.254 116.524 100.333 113.334L99.3046 109.706L98.1938 105.731L97.1791 102.043H96.9776C95.9704 106.873 94.7443 111.655 93.303 116.373L91.9438 120.736L88.6746 131.281L87.0178 136.654C86.7186 137.624 86.4198 138.583 86.1214 139.532L85.2309 142.342L84.345 145.086L83.4639 147.762L82.5874 150.371C82.1508 151.66 81.716 152.924 81.2833 154.161ZM234.216 167.523H194.575C195.06 171.446 196.363 175.222 198.399 178.609C200.649 181.964 203.831 184.587 207.554 186.155C212.598 188.339 218.055 189.409 223.551 189.291C227.912 189.206 232.256 188.73 236.531 187.866C240.354 187.35 244.101 186.374 247.689 184.958C248.36 184.423 248.696 184.758 248.697 185.963V205.08C248.73 205.601 248.625 206.122 248.393 206.589C248.164 206.955 247.854 207.264 247.489 207.495C243.508 209.258 239.318 210.506 235.021 211.209C229.184 212.305 223.251 212.81 217.313 212.717C208.084 212.717 200.305 211.333 193.975 208.564L193.366 208.291C187.281 205.611 181.906 201.545 177.672 196.419C173.716 191.588 170.773 186.011 169.019 180.019C167.282 174.104 166.402 167.972 166.404 161.808C166.385 155.077 167.438 148.386 169.524 141.986C171.531 135.744 174.706 129.94 178.88 124.883C182.998 119.885 188.145 115.835 193.972 113.009C199.874 110.127 206.85 109.092 214.899 109.092C221.574 108.925 228.205 110.231 234.318 112.916C239.459 115.108 243.984 118.525 247.498 122.87C250.796 127.123 253.316 131.926 254.943 137.056C256.528 142 257.342 147.158 257.358 152.349C257.358 155.302 257.258 157.985 257.057 160.399L256.878 162.466L256.69 164.428L256.579 165.421L256.553 165.631C256.501 166.075 256.288 166.483 255.954 166.78C255.621 167.077 255.19 167.241 254.743 167.241L254.191 167.253L253.503 167.288L252.968 167.327L251.716 167.433L250.617 167.542C250.318 167.573 250.008 167.603 249.686 167.63L248.689 167.709L247.624 167.779L246.493 167.837L245.295 167.888L244.671 167.909L243.374 167.944C242.091 167.976 240.776 167.896 239.427 167.798L237.381 167.648C236.329 167.571 235.272 167.529 234.216 167.523ZM194.577 149.192H221.979L224.313 149.176L225.899 149.154L226.927 149.131L228.08 149.091C229.112 148.988 230.108 148.658 230.998 148.124V146.917C230.958 145.343 230.687 143.784 230.194 142.289C229.108 138.856 226.926 135.874 223.981 133.801C221.037 131.729 217.493 130.681 213.895 130.817C210.508 130.613 207.135 131.398 204.187 133.078C201.239 134.757 198.844 137.258 197.293 140.276C195.913 143.083 194.996 146.092 194.577 149.192Z" fill="#9999FF"/>
</g>
<defs>
<clipPath id="clip0_9_2">
<rect width="300" height="292.935" fill="white" transform="translate(0 4)"/>
</clipPath>
</defs>
</svg>
