<svg width="300" height="300" viewBox="0 0 300 300" fill="none" xmlns="http://www.w3.org/2000/svg">
<g clip-path="url(#clip0_9_2)">
<g clip-path="url(#clip1_9_2)">
<path d="M229.688 0H70.3125C31.48 0 0 31.48 0 70.3125V229.688C0 268.52 31.48 300 70.3125 300H229.688C268.52 300 300 268.52 300 229.688V70.3125C300 31.48 268.52 0 229.688 0Z" fill="#330000"/>
<path d="M145 178.515H98.4996L88.9992 207.891C88.7496 209.016 87.75 209.766 86.625 209.64H63.1242C61.7496 209.64 61.3746 208.89 61.7496 207.39L102 91.5152C102.375 90.266 102.75 88.8902 103.249 87.3902C103.75 84.7652 103.999 82.016 103.999 79.2656C103.875 78.641 104.374 78.0152 105 77.891H137.374C138.375 77.891 138.874 78.266 139 78.8906L184.624 207.641C184.999 209.016 184.624 209.64 183.375 209.64H157.249C156.375 209.766 155.5 209.141 155.25 208.266L145 178.515ZM105.75 153.141H137.5C136.75 150.516 135.75 147.39 134.625 144.141C133.5 140.766 132.375 137.141 131.25 133.391C130 129.516 128.875 125.766 127.624 121.89C126.375 118.016 125.25 114.39 124.249 110.766C123.25 107.266 122.374 104.016 121.5 101.016H121.249C120.124 106.391 118.75 111.766 117 117.141C115.125 123.141 113.25 129.39 111.25 135.641C109.636 141.541 107.801 147.378 105.75 153.141ZM212.5 99.7652C208.375 99.8906 204.375 98.2652 201.375 95.3906C198.5 92.2652 197 88.1402 197.125 83.891C197 79.6406 198.625 75.641 201.625 72.7652C204.625 69.8895 208.625 68.3906 212.75 68.3906C217.625 68.3906 221.375 69.8906 224.125 72.7652C226.895 75.7956 228.375 79.7869 228.25 83.891C228.375 88.1402 226.875 92.2652 223.875 95.3906C221 98.3906 216.75 100.016 212.5 99.7652ZM198.5 208.266V112.016C198.5 110.766 199 110.265 200.125 110.265H224.875C226 110.265 226.5 110.891 226.5 112.016V208.266C226.5 209.64 226 210.266 224.875 210.266H200.375C199.125 210.266 198.5 209.516 198.5 208.266Z" fill="#FF9A00"/>
</g>
</g>
<defs>
<clipPath id="clip0_9_2">
<rect width="300" height="300" fill="white"/>
</clipPath>
<clipPath id="clip1_9_2">
<rect width="300" height="300" fill="white"/>
</clipPath>
</defs>
</svg>
