<svg width="195" height="208" viewBox="0 0 195 208" fill="none" xmlns="http://www.w3.org/2000/svg">
<path d="M35.9653 176.807L22.2787 13H172.721L159.016 176.781L97.4086 195L35.9653 176.807Z" fill="#1572B6"/>
<path d="M97.5 181.077L147.286 166.355L158.998 26.3965H97.5V181.077Z" fill="#33A9DC"/>
<path d="M97.5 85.7416H122.423L124.142 65.1691H97.5V45.0776H144.727L144.276 50.4661L139.65 105.833H97.5V85.7416Z" fill="white"/>
<path d="M97.6158 137.917L97.5305 137.943L76.5558 131.898L75.2152 115.875H56.3063L58.9449 147.42L97.5244 158.847L97.6158 158.821V137.917Z" fill="#EBEBEB"/>
<path d="M120.821 104.981L118.554 131.885L97.5487 137.93V158.834L136.159 147.42L136.445 144.027L139.717 104.981H120.821Z" fill="white"/>
<path d="M97.567 45.0776V65.1691H52.0711L51.6933 60.6516L50.8341 50.4661L50.3831 45.0776H97.567ZM97.5 85.7416V105.833H76.7873L76.4095 101.316L75.5564 91.1301L75.1055 85.7416H97.5Z" fill="#EBEBEB"/>
</svg>
