<svg width="195" height="208" viewBox="0 0 195 208" fill="none" xmlns="http://www.w3.org/2000/svg">
<path d="M35.9653 176.807L22.2726 13H172.727L159.016 176.781L97.4086 195L35.9653 176.807Z" fill="#E44F26"/>
<path d="M97.5 181.077L147.286 166.355L158.998 26.3965H97.5V181.077Z" fill="#F1662A"/>
<path d="M97.5 87.1454H72.5766L70.8581 66.5729H97.5V46.4814H50.2734L50.7244 51.8764L55.3495 107.237H97.5V87.1454ZM97.5 139.321L97.4147 139.347L76.44 133.308L75.0994 117.286H56.1905L58.8291 148.824L97.4147 160.251L97.5 160.225V139.321Z" fill="#EBEBEB"/>
<path d="M97.433 87.1454V107.237H120.626L118.444 133.295L97.433 139.34V160.244L136.049 148.824L136.329 145.431L140.753 92.5404L141.217 87.1454H97.433ZM97.433 46.4814V66.5729H142.929L143.307 62.0619L144.166 51.8764L144.617 46.4814H97.433Z" fill="white"/>
</svg>
