<svg width="300" height="300" viewBox="0 0 300 300" fill="none" xmlns="http://www.w3.org/2000/svg">
<g clip-path="url(#clip0_9_2)">
<g clip-path="url(#clip1_9_2)">
<path d="M229.688 0H70.3125C31.48 0 0 31.48 0 70.3125V229.688C0 268.52 31.48 300 70.3125 300H229.688C268.52 300 300 268.52 300 229.688V70.3125C300 31.48 268.52 0 229.688 0Z" fill="#001E36"/>
<path d="M67.5 208.641V80.0156C67.5 79.1402 67.875 78.641 68.7504 78.641C70.875 78.641 72.8754 78.641 75.75 78.5156C78.75 78.3902 81.8754 78.3902 85.2504 78.266C88.6254 78.1406 92.25 78.1406 96.1254 78.0152C99.9996 77.891 103.75 77.891 107.5 77.891C117.75 77.891 126.25 79.1402 133.25 81.7652C139.525 83.8967 145.247 87.3982 150 92.0156C154.027 96.0575 157.139 100.917 159.125 106.266C161 111.516 162 116.891 162 122.516C162 133.266 159.5 142.141 154.5 149.141C149.5 156.141 142.5 161.391 134.375 164.391C125.875 167.516 116.5 168.641 106.25 168.641C103.25 168.641 101.25 168.641 99.9996 168.516C98.7492 168.39 96.9996 168.39 94.6254 168.39V208.515C94.7496 209.391 94.125 210.141 93.2496 210.266H69C68.0004 210.266 67.5 209.766 67.5 208.641ZM94.7496 102.765V144.765C96.5004 144.891 98.1246 145.016 99.6246 145.016H106.25C111.125 145.016 116 144.266 120.625 142.766C124.625 141.641 128.125 139.266 130.875 136.14C133.5 133.016 134.75 128.766 134.75 123.266C134.868 119.36 133.87 115.501 131.875 112.14C129.75 108.891 126.75 106.391 123.125 105.015C118.5 103.14 113.5 102.39 108.375 102.516C105.125 102.516 102.25 102.516 99.8754 102.641C97.3746 102.516 95.625 102.641 94.7496 102.765ZM240 137.141C236.25 135.141 232.25 133.766 228 132.891C223.375 131.891 218.75 131.265 214 131.265C211.5 131.141 208.875 131.516 206.5 132.141C204.875 132.516 203.5 133.391 202.625 134.64C202 135.641 201.625 136.89 201.625 138.015C201.625 139.14 202.125 140.265 202.875 141.266C204 142.641 205.5 143.766 207.125 144.641C210.024 146.141 212.985 147.518 216 148.766C222.75 151.016 229.25 154.14 235.25 157.89C239.375 160.515 242.75 164.016 245.125 168.266C247.125 172.266 248.125 176.64 248 181.14C248.125 187.016 246.375 192.891 243.125 197.766C239.639 202.755 234.774 206.621 229.125 208.89C223 211.515 215.5 212.891 206.5 212.891C200.75 212.891 195.125 212.391 189.5 211.266C185.092 210.504 180.804 209.159 176.75 207.266C175.875 206.766 175.25 205.89 175.375 204.891V183.141C175.375 182.766 175.5 182.265 175.875 182.016C176.25 181.766 176.625 181.89 177 182.141C181.875 185.016 187 187.016 192.5 188.265C197.25 189.516 202.25 190.14 207.25 190.14C212 190.14 215.375 189.516 217.625 188.391C219.625 187.515 221 185.391 221 183.141C221 181.391 220 179.766 218 178.14C216 176.516 211.875 174.641 205.75 172.266C199.467 170.051 193.5 167.025 188 163.266C184.083 160.474 180.837 156.844 178.5 152.64C176.5 148.641 175.5 144.266 175.625 139.89C175.625 134.516 177.125 129.39 179.875 124.766C183 119.766 187.625 115.766 193 113.265C198.875 110.265 206.25 108.891 215.125 108.891C220.25 108.891 225.5 109.266 230.625 110.016C234.375 110.516 238 111.516 241.375 112.89C241.875 113.016 242.375 113.516 242.625 114.015C242.75 114.516 242.875 115.016 242.875 115.515V135.891C242.875 136.391 242.625 136.89 242.25 137.141C241.125 137.391 240.5 137.391 240 137.141Z" fill="#31A8FF"/>
</g>
</g>
<defs>
<clipPath id="clip0_9_2">
<rect width="300" height="300" fill="white"/>
</clipPath>
<clipPath id="clip1_9_2">
<rect width="300" height="300" fill="white"/>
</clipPath>
</defs>
</svg>
